<svg version="1.1" id="Logo" xmlns="http://www.w3.org/2000/svg" x="0" y="0" viewBox="0 0 137 28" xml:space="preserve"><style>.st0{enable-background:new}.st1{fill:#fefefe}.st2{fill:#65e496}</style><g class="st0"><path class="st1" d="M41 3h8c1.6 0 2.8.1 3.5.2s1.5.4 2.1.8 1.1 1 1.5 1.7.6 1.5.6 2.3c0 .9-.3 1.8-.8 2.6s-1 1.4-1.9 1.7c1.2.4 2.2 1 2.8 1.8s1 1.9 1 3c0 .9-.2 1.8-.6 2.7s-1 1.5-1.7 2.1c-.7.5-1.6.8-2.7 1-.7.1-2.3.1-4.9.1H41V3zm4.1 3.3v4.6h2.7c1.6 0 2.6 0 2.9-.1.7-.1 1.2-.3 1.6-.7s.6-.9.6-1.6c0-.6-.2-1.1-.5-1.5s-.9-.6-1.5-.7c-.4 0-1.6-.1-3.5-.1h-2.3zm0 8v5.4h3.7c1.5 0 2.4 0 2.8-.1.6-.1 1.1-.4 1.5-.8.4-.4.6-1 .6-1.7 0-.6-.1-1.1-.4-1.5-.3-.4-.7-.7-1.3-.9-.6-.2-1.7-.3-3.6-.3h-3.3zM61.2 3h4v10.9c0 1.7 0 2.8.2 3.3.2.8.6 1.5 1.2 2 .7.5 1.5.7 2.7.7 1.1 0 2-.2 2.6-.7s.9-1 1.1-1.7.2-1.8.2-3.4V3h4v10.5c0 2.4-.1 4.1-.3 5.1s-.6 1.8-1.2 2.5-1.4 1.2-2.4 1.6-2.3.6-3.9.6c-1.9 0-3.4-.2-4.4-.7-1-.4-1.8-1-2.3-1.7s-1-1.4-1.1-2.2c-.3-1.1-.4-2.8-.4-5.1V3zM81.5 23V3h4v8.9L93.7 3h5.4l-7.5 7.8 8 12.2h-5.2l-5.5-9.4-3.3 3.3V23h-4.1z"/></g><g class="st0"><path class="st2" d="M101.7 23V3h14.9v3.4h-10.8v4.4h10.1v3.4h-10.1v5.5H117V23h-15.3zM120.4 23V3h14.9v3.4h-10.8v4.4h10.1v3.4h-10.1v5.5h11.2V23h-15.3z"/></g><g id="logo_icon"><path id="Rectangle_10_copy_3" class="st2" d="M28 28L0 0h28v28z"/><path d="M28 0L0 28V0h28z" fill="#44444f"/></g></svg>